<svg width="26" height="30" viewBox="0 0 26 30" fill="none" xmlns="http://www.w3.org/2000/svg">
<path d="M24.718 10.6739C24.5816 10.7536 21.3341 12.433 21.3341 16.157C21.4871 20.4038 25.4323 21.893 25.5 21.893C25.4323 21.9727 24.9045 23.922 23.3405 25.9652C22.0993 27.7254 20.7218 29.5 18.63 29.5C16.6402 29.5 15.9259 28.327 13.63 28.327C11.1643 28.327 10.4666 29.5 8.57892 29.5C6.48714 29.5 5.00749 27.6304 3.69874 25.8868C1.99839 23.6046 0.553173 20.0234 0.502155 16.5848C0.467762 14.7627 0.842654 12.9714 1.7943 11.4502C3.13749 9.32607 5.53535 7.88429 8.1541 7.83679C10.1605 7.77375 11.9462 9.12054 13.1707 9.12054C14.3443 9.12054 16.5382 7.83679 19.0204 7.83679C20.0918 7.83786 22.9489 8.13857 24.718 10.6739ZM13.0011 7.47304C12.6439 5.80898 13.63 4.14498 14.5484 3.08352C15.7218 1.79986 17.5752 0.928574 19.1734 0.928574C19.2755 2.59259 18.6289 4.22456 17.4732 5.41315C16.4361 6.69679 14.6504 7.66322 13.0011 7.47304Z" fill="white"/>
</svg>
