<svg width="618" height="618" viewBox="0 0 618 618" fill="none" xmlns="http://www.w3.org/2000/svg">
<rect x="163.603" y="309" width="86.8619" height="86.8619" transform="rotate(135 163.603 309)" stroke="#4F871C" stroke-width="20.652"/>
<path d="M577.238 309L515.818 370.421L454.397 309L515.818 247.579L577.238 309Z" stroke="#4F871C" stroke-width="20.652"/>
<rect x="189.762" y="309" width="123.856" height="123.856" transform="rotate(135 189.762 309)" stroke="#0B5D83" stroke-width="20.652"/>
<rect x="295.921" y="191.286" width="115.606" height="18.497" transform="rotate(-135 295.921 191.286)" fill="#0B5D83"/>
<rect x="322.079" y="426.713" width="115.606" height="18.497" transform="rotate(45 322.079 426.713)" fill="#0B5D83"/>
<rect width="115.606" height="18.497" transform="matrix(-0.707107 0.707107 0.707107 0.707107 295.921 426.713)" fill="#0B5D83"/>
<rect width="115.606" height="18.497" transform="matrix(0.707107 -0.707107 -0.707107 -0.707107 322.08 191.286)" fill="#0B5D83"/>
<rect x="439.794" y="309" width="184.97" height="184.97" transform="rotate(135 439.794 309)" fill="#F4A929"/>
<rect x="425.191" y="309" width="164.318" height="164.318" transform="rotate(135 425.191 309)" stroke="#0B5D83" stroke-width="20.652"/>
<rect x="210.905" y="145.508" width="23.1213" height="27.7455" transform="rotate(-135 210.905 145.508)" fill="#0B5D83"/>
<rect x="407.095" y="472.492" width="23.1213" height="27.7455" transform="rotate(45 407.095 472.492)" fill="#0B5D83"/>
<rect width="23.1213" height="27.7455" transform="matrix(-0.707107 0.707107 0.707107 0.707107 210.905 472.492)" fill="#0B5D83"/>
<rect width="23.1213" height="27.7455" transform="matrix(0.707107 -0.707107 -0.707107 -0.707107 407.095 145.508)" fill="#0B5D83"/>
<rect x="375.27" y="309" width="93.7197" height="93.7197" transform="rotate(135 375.27 309)" stroke="#0B5D83" stroke-width="10.326"/>
<rect x="233.904" y="309" width="29.0587" height="29.0587" transform="rotate(135 233.904 309)" stroke="#0B5D83" stroke-width="20.652"/>
<rect x="425.191" y="309" width="29.0587" height="29.0587" transform="rotate(135 425.191 309)" stroke="#0B5D83" stroke-width="20.652"/>
<rect x="603.397" y="309" width="123.856" height="123.856" transform="rotate(135 603.397 309)" stroke="#0B5D83" stroke-width="20.652"/>
<rect x="469.116" y="209.164" width="92.4851" height="27.7455" transform="rotate(135 469.116 209.164)" fill="#0B5D83"/>
<rect x="147.96" y="409.546" width="92.4851" height="27.7455" transform="rotate(-45 147.96 409.546)" fill="#0B5D83"/>
<rect width="92.4851" height="27.7455" transform="matrix(-0.707107 -0.707107 -0.707107 0.707107 470.04 409.546)" fill="#0B5D83"/>
<rect width="92.4851" height="27.7455" transform="matrix(0.707107 0.707107 0.707107 -0.707107 148.066 208.347)" fill="#0B5D83"/>
<rect x="449.603" y="189.651" width="39.3062" height="27.7455" transform="rotate(135 449.603 189.651)" fill="#0B5D83"/>
<rect x="167.473" y="429.061" width="39.3062" height="27.7455" transform="rotate(-45 167.473 429.061)" fill="#0B5D83"/>
<rect width="39.3062" height="27.7455" transform="matrix(-0.707107 -0.707107 -0.707107 0.707107 450.527 429.061)" fill="#0B5D83"/>
<rect width="39.3062" height="27.7455" transform="matrix(0.707107 0.707107 0.707107 -0.707107 167.579 188.833)" fill="#0B5D83"/>
</svg>
