<svg width="835" height="835" viewBox="0 0 835 835" fill="none" xmlns="http://www.w3.org/2000/svg">
<rect x="417.5" y="613.951" width="117.362" height="117.362" transform="rotate(45 417.5 613.951)" stroke="#4F871C" stroke-width="27.9036"/>
<path d="M417.5 55.0746L500.487 138.062L417.5 221.049L334.513 138.062L417.5 55.0746Z" stroke="#4F871C" stroke-width="27.9036"/>
<rect x="417.5" y="578.606" width="167.346" height="167.346" transform="rotate(45 417.5 578.606)" stroke="#0B5D83" stroke-width="27.9036"/>
<rect x="258.453" y="435.172" width="156.199" height="24.9919" transform="rotate(135 258.453 435.172)" fill="#0B5D83"/>
<rect x="576.547" y="399.828" width="156.199" height="24.9919" transform="rotate(-45 576.547 399.828)" fill="#0B5D83"/>
<rect width="156.199" height="24.9919" transform="matrix(0.707107 0.707107 0.707107 -0.707107 576.547 435.172)" fill="#0B5D83"/>
<rect width="156.199" height="24.9919" transform="matrix(-0.707107 -0.707107 -0.707107 0.707107 258.453 399.828)" fill="#0B5D83"/>
<rect x="417.499" y="240.78" width="249.919" height="249.919" transform="rotate(45 417.499 240.78)" fill="#F4A929"/>
<rect x="417.499" y="260.511" width="222.016" height="222.016" transform="rotate(45 417.499 260.511)" stroke="#0B5D83" stroke-width="27.9036"/>
<rect x="196.6" y="550.04" width="31.2399" height="37.4879" transform="rotate(135 196.6 550.04)" fill="#0B5D83"/>
<rect x="638.4" y="284.96" width="31.2399" height="37.4879" transform="rotate(-45 638.4 284.96)" fill="#0B5D83"/>
<rect width="31.2399" height="37.4879" transform="matrix(0.707107 0.707107 0.707107 -0.707107 638.399 550.04)" fill="#0B5D83"/>
<rect width="31.2399" height="37.4879" transform="matrix(-0.707107 -0.707107 -0.707107 0.707107 196.6 284.96)" fill="#0B5D83"/>
<rect x="417.5" y="327.961" width="126.628" height="126.628" transform="rotate(45 417.5 327.961)" stroke="#0B5D83" stroke-width="13.9518"/>
<rect x="417.5" y="518.965" width="39.2622" height="39.2622" transform="rotate(45 417.5 518.965)" stroke="#0B5D83" stroke-width="27.9036"/>
<rect x="417.499" y="260.511" width="39.2622" height="39.2622" transform="rotate(45 417.499 260.511)" stroke="#0B5D83" stroke-width="27.9036"/>
<rect x="417.5" y="19.7308" width="167.346" height="167.346" transform="rotate(45 417.5 19.7308)" stroke="#0B5D83" stroke-width="27.9036"/>
<rect x="282.608" y="201.162" width="124.96" height="37.4879" transform="rotate(45 282.608 201.162)" fill="#0B5D83"/>
<rect x="553.352" y="635.086" width="124.96" height="37.4879" transform="rotate(-135 553.352 635.086)" fill="#0B5D83"/>
<rect width="124.96" height="37.4879" transform="matrix(-0.707107 0.707107 0.707107 0.707107 553.352 199.914)" fill="#0B5D83"/>
<rect width="124.96" height="37.4879" transform="matrix(0.707107 -0.707107 -0.707107 -0.707107 281.504 634.943)" fill="#0B5D83"/>
<rect x="256.244" y="227.527" width="53.1078" height="37.4879" transform="rotate(45 256.244 227.527)" fill="#0B5D83"/>
<rect x="579.718" y="608.722" width="53.1078" height="37.4879" transform="rotate(-135 579.718 608.722)" fill="#0B5D83"/>
<rect width="53.1078" height="37.4879" transform="matrix(-0.707107 0.707107 0.707107 0.707107 579.718 226.278)" fill="#0B5D83"/>
<rect width="53.1078" height="37.4879" transform="matrix(0.707107 -0.707107 -0.707107 -0.707107 255.139 608.579)" fill="#0B5D83"/>
</svg>
