<svg width="20" height="20" viewBox="0 0 20 20" fill="none" xmlns="http://www.w3.org/2000/svg">
<path d="M19.25 2.1875V17.3125C19.25 17.8854 19.0495 18.3724 18.6484 18.7734C18.2474 19.1745 17.7604 19.375 17.1875 19.375H13.5352V11.7695H16.1133L16.5 8.84766H13.5352V7C13.5352 6.54167 13.6211 6.19792 13.793 5.96875C14.0221 5.71094 14.4089 5.58203 14.9531 5.58203H16.5V3.00391C15.8984 2.91797 15.1536 2.875 14.2656 2.875C13.1198 2.875 12.2031 3.21875 11.5156 3.90625C10.8568 4.5651 10.5273 5.49609 10.5273 6.69922V8.84766H7.90625V11.7695H10.5273V19.375H2.0625C1.48958 19.375 1.0026 19.1745 0.601562 18.7734C0.200521 18.3724 0 17.8854 0 17.3125V2.1875C0 1.61458 0.200521 1.1276 0.601562 0.726562C1.0026 0.325521 1.48958 0.125 2.0625 0.125H17.1875C17.7604 0.125 18.2474 0.325521 18.6484 0.726562C19.0495 1.1276 19.25 1.61458 19.25 2.1875Z" fill="white"/>
</svg>
