<svg width="20" height="20" viewBox="0 0 20 20" fill="none" xmlns="http://www.w3.org/2000/svg">
<path d="M7.90625 6.35547C7.90625 5.89714 8.07812 5.49609 8.42188 5.15234C8.76562 4.80859 9.16667 4.63672 9.625 4.63672C10.0833 4.63672 10.4844 4.80859 10.8281 5.15234C11.1719 5.49609 11.3438 5.91146 11.3438 6.39844C11.3438 6.85677 11.1719 7.25781 10.8281 7.60156C10.4844 7.91667 10.0833 8.07422 9.625 8.07422C9.16667 8.07422 8.76562 7.91667 8.42188 7.60156C8.07812 7.25781 7.90625 6.84245 7.90625 6.35547ZM19.25 2.1875V17.3125C19.25 17.8854 19.0495 18.3724 18.6484 18.7734C18.2474 19.1745 17.7604 19.375 17.1875 19.375H2.0625C1.48958 19.375 1.0026 19.1745 0.601562 18.7734C0.200521 18.3724 0 17.8854 0 17.3125V2.1875C0 1.61458 0.200521 1.1276 0.601562 0.726562C1.0026 0.325521 1.48958 0.125 2.0625 0.125H17.1875C17.7604 0.125 18.2474 0.325521 18.6484 0.726562C19.0495 1.1276 19.25 1.61458 19.25 2.1875ZM6.14453 6.35547C6.14453 7.32943 6.47396 8.16016 7.13281 8.84766C7.82031 9.50651 8.65104 9.83594 9.625 9.83594C10.599 9.83594 11.4154 9.50651 12.0742 8.84766C12.7617 8.16016 13.1055 7.34375 13.1055 6.39844C13.1055 5.42448 12.7617 4.59375 12.0742 3.90625C11.4154 3.21875 10.599 2.875 9.625 2.875C8.65104 2.875 7.82031 3.21875 7.13281 3.90625C6.47396 4.5651 6.14453 5.38151 6.14453 6.35547ZM13.6211 10.2656C13.5065 10.0365 13.3203 9.89323 13.0625 9.83594C12.8047 9.75 12.5039 9.83594 12.1602 10.0938L11.8594 10.3086C11.6016 10.4518 11.3151 10.5807 11 10.6953C10.5417 10.8099 10.0833 10.8672 9.625 10.8672C8.96615 10.8672 8.35026 10.7383 7.77734 10.4805C7.46224 10.3659 7.23307 10.237 7.08984 10.0938C6.74609 9.83594 6.44531 9.75 6.1875 9.83594C5.92969 9.89323 5.74349 10.0365 5.62891 10.2656C5.45703 10.5807 5.45703 10.8529 5.62891 11.082C5.74349 11.2826 6.04427 11.5404 6.53125 11.8555C7.10417 12.2279 7.92057 12.4714 8.98047 12.5859L6.35938 15.1641C6.13021 15.4219 6.05859 15.694 6.14453 15.9805C6.25911 16.2669 6.45964 16.4674 6.74609 16.582C7.0612 16.6966 7.33333 16.6393 7.5625 16.4102L9.625 14.3477L11.6875 16.4102C11.9167 16.6393 12.1745 16.6966 12.4609 16.582C12.776 16.4674 12.9909 16.2669 13.1055 15.9805C13.2201 15.694 13.1484 15.4219 12.8906 15.1641L10.3125 12.5859C11.3151 12.4714 12.1172 12.2279 12.7188 11.8555C13.2057 11.5404 13.5065 11.2826 13.6211 11.082C13.793 10.8529 13.793 10.5807 13.6211 10.2656Z" fill="white"/>
</svg>
