<svg width="12" height="12" viewBox="0 0 12 12" fill="none" xmlns="http://www.w3.org/2000/svg">
<path d="M5.89402 10.2104C3.53933 10.2104 1.63086 8.30192 1.63086 5.94724C1.63086 3.59256 3.53933 1.68408 5.89402 1.68408C8.2487 1.68408 10.1572 3.59256 10.1572 5.94724C10.1572 8.30192 8.2487 10.2104 5.89402 10.2104Z" stroke="#F4A929" stroke-width="0.710526" stroke-linecap="round" stroke-linejoin="round"/>
<path d="M5.89463 6.53958V6.42116C5.89463 6.03416 6.13384 5.82432 6.37353 5.66326C6.60753 5.50553 6.842 5.29995 6.842 4.921C6.842 4.39758 6.41806 3.97363 5.89463 3.97363C5.37121 3.97363 4.94727 4.39758 4.94727 4.921" stroke="#F4A929" stroke-width="0.710526" stroke-linecap="round" stroke-linejoin="round"/>
<path d="M5.89334 7.84204C5.82797 7.84204 5.77492 7.89509 5.77539 7.96046C5.77539 8.02583 5.82845 8.07888 5.89381 8.07888C5.95918 8.07888 6.01224 8.02583 6.01224 7.96046C6.01224 7.89509 5.95918 7.84204 5.89334 7.84204Z" stroke="#F4A929" stroke-width="0.710526" stroke-linecap="round" stroke-linejoin="round"/>
</svg>
