<svg width="24" height="15" viewBox="0 0 24 15" fill="none" xmlns="http://www.w3.org/2000/svg">
<path d="M23.418 1.82031C23.5898 1.1901 23.332 0.875 22.6445 0.875H20.1094C19.5938 0.875 19.2357 1.11849 19.0352 1.60547L18.6055 2.46484C18.2617 3.20964 17.9036 3.89714 17.5312 4.52734C16.987 5.41536 16.4427 6.16016 15.8984 6.76172C15.612 7.07682 15.3828 7.29167 15.2109 7.40625C15.0391 7.49219 14.8815 7.53516 14.7383 7.53516C14.6237 7.53516 14.5234 7.47786 14.4375 7.36328C14.3516 7.2487 14.3086 7.0625 14.3086 6.80469V1.82031C14.3086 1.47656 14.2513 1.23307 14.1367 1.08984C14.0508 0.946615 13.8789 0.875 13.6211 0.875H9.625C9.45312 0.875 9.29557 0.932292 9.15234 1.04688C9.03776 1.16146 8.98047 1.30469 8.98047 1.47656C8.98047 1.61979 9.08073 1.82031 9.28125 2.07812C9.48177 2.30729 9.625 2.52214 9.71094 2.72266C9.88281 3.06641 9.98307 3.46745 10.0117 3.92578V7.66406C10.0117 8.03646 9.96875 8.29427 9.88281 8.4375C9.82552 8.55208 9.71094 8.60938 9.53906 8.60938C9.2526 8.60938 8.85156 8.29427 8.33594 7.66406C7.82031 7.03385 7.30469 6.21745 6.78906 5.21484C6.21615 4.1263 5.72917 3.00911 5.32812 1.86328C5.21354 1.49089 5.07031 1.23307 4.89844 1.08984C4.75521 0.946615 4.52604 0.875 4.21094 0.875H1.67578C1.10286 0.875 0.816406 1.11849 0.816406 1.60547C0.816406 1.89193 0.916667 2.39323 1.11719 3.10938C1.43229 3.9974 1.84766 4.95703 2.36328 5.98828C3.02214 7.33464 3.83854 8.66667 4.8125 9.98438C5.84375 11.474 7.04688 12.6198 8.42188 13.4219C9.79688 14.224 11.1576 14.625 12.5039 14.625C13.2773 14.625 13.793 14.5391 14.0508 14.3672C14.2513 14.224 14.3372 13.9805 14.3086 13.6367V12.5195C14.3086 11.832 14.3229 11.388 14.3516 11.1875C14.3516 10.901 14.3945 10.7148 14.4805 10.6289C14.5951 10.543 14.7669 10.5 14.9961 10.5C15.5404 10.5 16.3854 11.0443 17.5312 12.1328C17.875 12.4766 18.2617 12.9062 18.6914 13.4219C19.1497 13.9089 19.4648 14.2096 19.6367 14.3242C19.8945 14.5247 20.181 14.625 20.4961 14.625H23.0312C23.375 14.625 23.6185 14.5391 23.7617 14.3672C23.9336 14.1667 23.9766 13.8945 23.8906 13.5508C23.6328 12.7487 22.4727 11.2878 20.4102 9.16797L20.0234 8.73828C19.8516 8.53776 19.7656 8.36589 19.7656 8.22266C19.7656 8.07943 19.8516 7.87891 20.0234 7.62109C20.0521 7.59245 20.3242 7.20573 20.8398 6.46094C21.4414 5.51562 21.957 4.6849 22.3867 3.96875C22.9883 2.96615 23.332 2.25 23.418 1.82031Z" fill="white"/>
</svg>
